<svg width="14" height="15" viewBox="0 0 14 15" fill="none" xmlns="http://www.w3.org/2000/svg">
<path d="M11.3535 2.84673H10.333C10.2236 2.08537 9.82728 1.38601 9.21582 0.875409C8.60436 0.364807 7.81827 0.0767582 7.00003 0.0634766C6.18179 0.0767582 5.3957 0.364807 4.78424 0.875409C4.17278 1.38601 3.77643 2.08537 3.66703 2.84673H2.64703C2.08582 2.84708 1.54769 3.05647 1.15078 3.42893C0.753865 3.8014 0.530612 4.3065 0.530029 4.83335V12.0764C0.530532 12.6032 0.753634 13.1083 1.15038 13.4808C1.54712 13.8533 2.08509 14.0629 2.64623 14.0635H11.3532C11.9145 14.063 12.4526 13.8535 12.8495 13.481C13.2463 13.1084 13.4695 12.6033 13.47 12.0764V4.83335C13.4694 4.30658 13.2463 3.80155 12.8495 3.4291C12.4527 3.05665 11.9147 2.8472 11.3535 2.84673ZM7.00003 1.09574C7.52744 1.10651 8.03515 1.28591 8.43921 1.60429C8.84328 1.92268 9.11951 2.36098 9.22223 2.84673H4.77783C4.88055 2.36098 5.15678 1.92268 5.56085 1.60429C5.96491 1.28591 6.47262 1.10651 7.00003 1.09574ZM12.37 12.0764C12.3697 12.3295 12.2626 12.5721 12.072 12.7511C11.8814 12.9301 11.623 13.0308 11.3534 13.0312H2.64653C2.37697 13.0308 2.11859 12.93 1.92804 12.751C1.73749 12.5721 1.63032 12.3294 1.63003 12.0764V4.83335C1.63035 4.58033 1.73755 4.33776 1.92814 4.15885C2.11872 3.97994 2.37711 3.87929 2.64663 3.87899H11.3536C11.6231 3.87934 11.8815 3.98001 12.072 4.15891C12.2625 4.33782 12.3697 4.58036 12.37 4.83335V12.0764Z" fill="black" fill-opacity="0.8"/>
</svg>
