<svg width="15" height="15" viewBox="0 0 15 15" fill="none" xmlns="http://www.w3.org/2000/svg">
<path d="M14.298 13.3195L10.428 9.4704C11.129 8.54641 11.55 7.40063 11.55 6.15639C11.55 3.11291 9.06095 0.636353 5.99995 0.636353C2.93995 0.636353 0.449951 3.11291 0.449951 6.15639C0.449951 9.20086 2.93995 11.6764 5.99995 11.6764C7.25095 11.6764 8.40295 11.2577 9.33195 10.5605L13.202 14.4096C13.353 14.5598 13.552 14.6364 13.75 14.6364C13.948 14.6364 14.146 14.5608 14.298 14.4096C14.601 14.1082 14.601 13.6209 14.298 13.3195ZM1.54995 6.15639C1.54995 3.71564 3.54695 1.73041 5.99995 1.73041C8.45395 1.73041 10.45 3.71663 10.45 6.15639C10.45 8.59614 8.45395 10.5824 5.99995 10.5824C3.54595 10.5824 1.54995 8.59714 1.54995 6.15639Z" fill="black" fill-opacity="0.8"/>
</svg>
