<svg width="17" height="17" viewBox="0 0 17 17" fill="none" xmlns="http://www.w3.org/2000/svg">
<g clip-path="url(#clip0_35_178)">
<path d="M16.09 3.91999C15.5033 4.17599 14.874 4.35732 14.202 4.44265C14.8846 4.03732 15.3966 3.39732 15.642 2.62932C15.002 3.00265 14.3086 3.27999 13.5513 3.42932C12.954 2.78932 12.1006 2.39465 11.162 2.39465C9.34863 2.39465 7.87663 3.86665 7.87663 5.67999C7.87663 5.93599 7.90863 6.19199 7.96197 6.42665C5.24197 6.27732 2.82063 4.96532 1.1993 2.98132C0.921966 3.46132 0.761966 4.02665 0.761966 4.63465C0.761966 5.77599 1.33797 6.77865 2.2233 7.36532C1.6793 7.34399 1.17797 7.19465 0.729966 6.94932V6.99199C0.729966 8.58132 1.86063 9.91465 3.36463 10.2133C3.0873 10.288 2.7993 10.32 2.50063 10.32C2.2873 10.32 2.08463 10.2987 1.88197 10.2667C2.29797 11.568 3.51397 12.5173 4.9433 12.5493C3.8233 13.424 2.40463 13.9467 0.868633 13.9467C0.601966 13.9467 0.345966 13.936 0.0899658 13.904C1.54063 14.832 3.26863 15.376 5.12463 15.376C11.162 15.376 14.458 10.3733 14.458 6.04265L14.4473 5.61599C15.098 5.15732 15.6526 4.58132 16.09 3.91999Z" fill="#800020"/>
</g>
<defs>
<clipPath id="clip0_35_178">
<rect width="16" height="16" fill="white" transform="translate(0.0899658 0.880005)"/>
</clipPath>
</defs>
</svg>
