<svg width="16" height="14" viewBox="0 0 16 14" fill="none" xmlns="http://www.w3.org/2000/svg">
<path d="M8 8.36669C7.18415 8.36669 6.38662 8.14089 5.70827 7.71785C5.02992 7.2948 4.50121 6.69351 4.189 5.99002C3.87679 5.28652 3.7951 4.51242 3.95426 3.76559C4.11342 3.01876 4.50629 2.33276 5.08318 1.79433C5.66008 1.2559 6.39508 0.889218 7.19525 0.740665C7.99542 0.592112 8.82482 0.668355 9.57857 0.959753C10.3323 1.25115 10.9766 1.74461 11.4298 2.37774C11.8831 3.01087 12.125 3.75523 12.125 4.51669C12.125 5.53777 11.6904 6.51703 10.9168 7.23905C10.1432 7.96106 9.09402 8.36669 8 8.36669ZM8 1.36669C7.33249 1.36669 6.67997 1.55143 6.12495 1.89756C5.56993 2.24369 5.13735 2.73565 4.88191 3.31124C4.62646 3.88682 4.55962 4.52018 4.68985 5.13122C4.82007 5.74226 5.14151 6.30354 5.61351 6.74407C6.08552 7.18461 6.68688 7.48462 7.34157 7.60616C7.99626 7.72771 8.67486 7.66533 9.29156 7.42691C9.90826 7.18849 10.4354 6.78475 10.8062 6.26673C11.1771 5.74872 11.375 5.1397 11.375 4.51669C11.375 3.68126 11.0194 2.88004 10.3865 2.2893C9.75355 1.69856 8.89511 1.36669 8 1.36669ZM15.125 14.6667C15.0255 14.6667 14.9302 14.6298 14.8598 14.5642C14.7895 14.4985 14.75 14.4095 14.75 14.3167V13.9667C14.75 12.9456 14.3154 11.9663 13.5418 11.2443C12.7682 10.5223 11.719 10.1167 10.625 10.1167H5.375C4.28098 10.1167 3.23177 10.5223 2.45818 11.2443C1.6846 11.9663 1.25 12.9456 1.25 13.9667V14.3167C1.25 14.4095 1.21049 14.4985 1.14016 14.5642C1.06984 14.6298 0.974456 14.6667 0.875 14.6667C0.775544 14.6667 0.680161 14.6298 0.609835 14.5642C0.539509 14.4985 0.5 14.4095 0.5 14.3167V13.9667C0.5 12.76 1.01361 11.6026 1.92785 10.7494C2.84209 9.89606 4.08207 9.41669 5.375 9.41669H10.625C11.2652 9.41669 11.8991 9.53438 12.4906 9.76304C13.082 9.9917 13.6195 10.3268 14.0721 10.7494C14.5248 11.1719 14.8839 11.6734 15.1289 12.2255C15.3739 12.7775 15.5 13.3692 15.5 13.9667V14.3167C15.5 14.4095 15.4605 14.4985 15.3902 14.5642C15.3198 14.6298 15.2245 14.6667 15.125 14.6667Z" fill="#333333"/>
</svg>
